# xmcd
#
# Track frame offsets: 
#        150
#        18955
#        37775
#        54165
#        70787
#        88292
#        106047
#        121505
#        138697
#        154240
#
# Disc length: 2238 seconds
#
# Revision: 0
# Processed by: cddbd v1.5.1PL2 Copyright (c) Steve Scherf et al.
# Submitted via: ExactAudioCopy v0.95b4
#
DISCID=7308bc0a
DTITLE=ฝน  ธนสุนทร - พี่ชายชั่วคราว
DYEAR=2003
DGENRE=Country
TTITLE0=พี่ชายชั่วคราว
TTITLE1=หนึ่งกำลังใจ
TTITLE2=ให้เธอหมดแล้ว
TTITLE3=รักมาห้าโมงเย็น
TTITLE4=รักแล้วไม่กลัวจน
TTITLE5=ขอแค่คนสุดท้าย
TTITLE6=รักคนขี้เหร่
TTITLE7=เจ้าของเป็นไข้
TTITLE8=แม่นบ่ละ
TTITLE9=คนใช่ของหลายคน
EXTD=
EXTT0=
EXTT1=
EXTT2=
EXTT3=
EXTT4=
EXTT5=
EXTT6=
EXTT7=
EXTT8=
EXTT9=
PLAYORDER=
